<?xml version="1.0" encoding="UTF-8"?><svg xmlns="http://www.w3.org/2000/svg" xmlns:xlink="http://www.w3.org/1999/xlink" viewBox="0 0 1030.69 177.14"><defs><style>.cls-1{fill:url(#Pewter_Radial-6);}.cls-1,.cls-2,.cls-3,.cls-4,.cls-5,.cls-6,.cls-7,.cls-8,.cls-9,.cls-10,.cls-11,.cls-12,.cls-13,.cls-14,.cls-15,.cls-16,.cls-17,.cls-18,.cls-19,.cls-20,.cls-21,.cls-22,.cls-23,.cls-24,.cls-25,.cls-26,.cls-27,.cls-28,.cls-29,.cls-30,.cls-31,.cls-32,.cls-33,.cls-34,.cls-35,.cls-36,.cls-37,.cls-38,.cls-39,.cls-40,.cls-41,.cls-42,.cls-43,.cls-44,.cls-45,.cls-46,.cls-47,.cls-48,.cls-49{stroke-width:0px;}.cls-2{fill:url(#Steel-3);}.cls-3{fill:url(#radial-gradient-14);}.cls-3,.cls-11,.cls-18,.cls-20{mix-blend-mode:difference;opacity:.25;}.cls-4{fill:url(#radial-gradient-16);}.cls-5{fill:url(#linear-gradient);}.cls-6,.cls-33{fill:#f15a24;}.cls-6,.cls-45{opacity:.1;}.cls-7{fill:url(#Steel_Radial-6);}.cls-8{fill:url(#Pewter_Radial);}.cls-9{fill:url(#radial-gradient-8);}.cls-50{filter:url(#SBdrop-shadow-4);}.cls-10{fill:url(#Steel_Radial-9);}.cls-11{fill:url(#linear-gradient-6);}.cls-12{fill:url(#Pewter_Radial-7);}.cls-51{isolation:isolate;}.cls-13{fill:#29abe2;}.cls-14{fill:url(#Pewter_Radial-2);}.cls-15{fill:url(#radial-gradient-13);}.cls-52{filter:url(#SBdrop-shadow-3);}.cls-16{fill:url(#Steel-4);}.cls-17{fill:url(#Steel_Radial-8);}.cls-53{filter:url(#SBdrop-shadow-1);}.cls-18{fill:url(#radial-gradient-12);}.cls-19{fill:#333;}.cls-20{fill:url(#linear-gradient-7);}.cls-21{fill:url(#Steel);}.cls-54{filter:url(#SBdrop-shadow-5);}.cls-22{fill:url(#linear-gradient-2);}.cls-23{fill:url(#Steel_Radial-10);}.cls-55{filter:url(#SBdrop-shadow-2);}.cls-24{fill:url(#radial-gradient-2);}.cls-25{fill:url(#radial-gradient-7);}.cls-26{fill:url(#linear-gradient-3);}.cls-27{fill:url(#Steel_Radial-3);}.cls-56{fill:#fff;stroke:url(#linear-gradient-5);stroke-miterlimit:10;}.cls-28{fill:url(#Steel_Radial-7);}.cls-29{fill:url(#radial-gradient-5);}.cls-30{fill:url(#Pewter_Radial-5);}.cls-31{fill:url(#radial-gradient);}.cls-32{fill:url(#Pewter_Radial-3);}.cls-34{fill:url(#Steel-2);}.cls-35{fill:url(#radial-gradient-17);}.cls-35,.cls-57{mix-blend-mode:screen;}.cls-36{fill:url(#Steel_Radial-5);}.cls-37{fill:url(#radial-gradient-10);}.cls-38{fill:url(#Steel_Radial-4);}.cls-39{fill:url(#Pewter_Radial-4);}.cls-40{fill:url(#Steel_Radial-2);}.cls-41{fill:url(#radial-gradient-6);}.cls-42{fill:url(#radial-gradient-15);}.cls-43{fill:url(#radial-gradient-9);}.cls-44{fill:url(#radial-gradient-3);}.cls-45{fill:#0071bc;}.cls-46{fill:url(#radial-gradient-11);}.cls-47{fill:url(#Steel_Radial);}.cls-48{fill:url(#linear-gradient-4);}.cls-57{opacity:.5;}.cls-49{fill:url(#radial-gradient-4);}</style><filter id="SBdrop-shadow-1" filterUnits="userSpaceOnUse"><feOffset dx="0" dy="9"/><feGaussianBlur result="blur" stdDeviation="8"/><feFlood flood-color="#000" flood-opacity=".75"/><feComposite in2="blur" operator="in"/><feComposite in="SourceGraphic"/></filter><linearGradient id="linear-gradient" x1="951.99" y1="69.25" x2="649.19" y2="69.25" gradientUnits="userSpaceOnUse"><stop offset="0" stop-color="#f69e23"/><stop offset=".31" stop-color="#f15a24"/><stop offset=".77" stop-color="#c1272d"/><stop offset=".98" stop-color="#9e005d"/></linearGradient><linearGradient id="linear-gradient-2" x1="79.79" y1="69.25" x2="383.19" y2="69.25" gradientUnits="userSpaceOnUse"><stop offset="0" stop-color="aqua"/><stop offset=".31" stop-color="#0071bc"/><stop offset=".77" stop-color="blue"/><stop offset=".98" stop-color="#0000a7"/></linearGradient><radialGradient id="Pewter_Radial" cx="515.87" cy="73.62" fx="515.87" fy="73.62" r="319.76" gradientUnits="userSpaceOnUse"><stop offset="0" stop-color="#aeb0b7"/><stop offset=".32" stop-color="#a9a9a8"/><stop offset=".35" stop-color="#a9a9a6"/><stop offset=".5" stop-color="#9a9d9e"/><stop offset=".67" stop-color="#838c92"/><stop offset="1" stop-color="#657076"/></radialGradient><radialGradient id="Pewter_Radial-2" cx="515.8" cy="88.13" fx="515.8" fy="88.13" r="312.73" xlink:href="#Pewter_Radial"/><radialGradient id="Steel_Radial" cx="515.62" cy="85.05" fx="515.62" fy="85.05" r="304.49" gradientUnits="userSpaceOnUse"><stop offset="0" stop-color="#e5e2df"/><stop offset="0" stop-color="#f1efed"/><stop offset="0" stop-color="#fff"/><stop offset=".13" stop-color="#f0f0f0"/><stop offset=".37" stop-color="#c9cacb"/><stop offset=".52" stop-color="#adaeb0"/><stop offset=".6" stop-color="#a3a5a7"/><stop offset=".74" stop-color="#898d8f"/><stop offset=".91" stop-color="#5e6669"/><stop offset="1" stop-color="#465053"/></radialGradient><radialGradient id="Pewter_Radial-3" cx="247.76" cy="112.02" fx="247.76" fy="112.02" r="90.68" xlink:href="#Pewter_Radial"/><radialGradient id="radial-gradient" cx="248.1" cy="113.29" fx="248.1" fy="113.29" r="90.41" gradientUnits="userSpaceOnUse"><stop offset="0" stop-color="#fff"/><stop offset="0" stop-color="#1a1a1a"/><stop offset="1" stop-color="#000"/></radialGradient><radialGradient id="radial-gradient-2" cx="397.48" cy="73.62" fx="397.48" fy="73.62" r="35.9" gradientUnits="userSpaceOnUse"><stop offset="0" stop-color="#fff"/><stop offset="0" stop-color="#363636"/><stop offset="1" stop-color="#000"/></radialGradient><radialGradient id="radial-gradient-3" cx="397.48" cy="73.62" fx="397.48" fy="73.62" r="34.46" gradientUnits="userSpaceOnUse"><stop offset="0" stop-color="#0096ce"/><stop offset=".3" stop-color="#0071bc"/><stop offset=".76" stop-color="blue"/><stop offset=".98" stop-color="#0000a7"/></radialGradient><radialGradient id="Pewter_Radial-4" cx="398.57" cy="72.53" fx="398.57" fy="72.53" r="35.81" xlink:href="#Pewter_Radial"/><radialGradient id="Steel_Radial-2" cx="515.76" cy="119.95" fx="515.76" fy="119.95" r="88.99" xlink:href="#Steel_Radial"/><radialGradient id="Steel_Radial-3" cx="516.05" cy="150.44" fx="516.05" fy="150.44" r="85.28" xlink:href="#Steel_Radial"/><radialGradient id="radial-gradient-4" cx="515.76" cy="119.67" fx="515.76" fy="119.67" r="87.23" xlink:href="#radial-gradient-2"/><radialGradient id="radial-gradient-5" cx="516.05" cy="150.48" fx="516.05" fy="150.48" r="83.56" xlink:href="#radial-gradient-2"/><radialGradient id="Pewter_Radial-5" cx="515.4" cy="51.5" fx="515.4" fy="51.5" r="289.46" xlink:href="#Pewter_Radial"/><radialGradient id="radial-gradient-6" cx="516.05" cy="18.85" fx="516.05" fy="18.85" r="284.5" xlink:href="#radial-gradient-2"/><linearGradient id="linear-gradient-3" x1="444.05" y1="71.98" x2="587.36" y2="71.98" gradientUnits="userSpaceOnUse"><stop offset="0" stop-color="#0a0a0a"/><stop offset=".24" stop-color="#333"/><stop offset=".41" stop-color="#404040"/><stop offset=".54" stop-color="#4d4d4d"/><stop offset=".72" stop-color="#333"/><stop offset=".79" stop-color="#2e2e2e"/><stop offset=".87" stop-color="#212121"/><stop offset=".9" stop-color="#1a1a1a"/></linearGradient><linearGradient id="linear-gradient-4" x1="145.61" y1="-90.8" x2="963.94" y2="248.78" gradientUnits="userSpaceOnUse"><stop offset="0" stop-color="#fff"/><stop offset=".13" stop-color="#7e7e7e"/><stop offset=".3" stop-color="#000"/><stop offset=".38" stop-color="#a4a4a4"/><stop offset=".42" stop-color="#9c9c9c"/><stop offset=".48" stop-color="#888"/><stop offset=".54" stop-color="#676767"/><stop offset=".61" stop-color="#3f3f3f"/><stop offset=".66" stop-color="#777"/><stop offset=".71" stop-color="#d7d7d7"/><stop offset=".9" stop-color="#2d2d2d"/><stop offset=".98" stop-color="#7a7a7a"/></linearGradient><radialGradient id="Pewter_Radial-6" cx="782.93" cy="112.02" fx="782.93" fy="112.02" r="90.68" xlink:href="#Pewter_Radial"/><radialGradient id="radial-gradient-7" cx="782.59" cy="113.29" fx="782.59" fy="113.29" r="90.41" gradientUnits="userSpaceOnUse"><stop offset="0" stop-color="#fff"/><stop offset="0" stop-color="#1a1a1a"/><stop offset="1" stop-color="#000"/></radialGradient><radialGradient id="radial-gradient-8" cx="633.21" cy="73.62" fx="633.21" fy="73.62" r="35.9" xlink:href="#radial-gradient-2"/><radialGradient id="radial-gradient-9" cx="633.21" cy="73.62" fx="633.21" fy="73.62" r="34.46" gradientUnits="userSpaceOnUse"><stop offset="0" stop-color="#f69e23"/><stop offset=".43" stop-color="#f15a24"/><stop offset=".76" stop-color="#c1272d"/><stop offset=".98" stop-color="#9e005d"/></radialGradient><radialGradient id="Pewter_Radial-7" cx="632.12" cy="72.53" fx="632.12" fy="72.53" r="35.81" xlink:href="#Pewter_Radial"/><radialGradient id="radial-gradient-10" cx="515.76" cy="72.62" fx="515.76" fy="72.62" r="53.35" xlink:href="#radial-gradient-2"/><linearGradient id="linear-gradient-5" x1="112.99" y1="19.42" x2="918.53" y2="19.42" gradientUnits="userSpaceOnUse"><stop offset="0" stop-color="aqua"/><stop offset=".3" stop-color="blue"/><stop offset=".5" stop-color="#1b1464"/><stop offset=".7" stop-color="#f15a24"/><stop offset="1" stop-color="#fbb03b"/></linearGradient><filter id="SBdrop-shadow-2" filterUnits="userSpaceOnUse"><feOffset dx="0" dy="9"/><feGaussianBlur result="blur-2" stdDeviation="3"/><feFlood flood-color="#000" flood-opacity=".75"/><feComposite in2="blur-2" operator="in"/><feComposite in="SourceGraphic"/></filter><linearGradient id="Steel" x1="112.09" y1="72.62" x2="374.61" y2="72.62" gradientUnits="userSpaceOnUse"><stop offset="0" stop-color="#e5e2df"/><stop offset="0" stop-color="#ded9d6"/><stop offset=".04" stop-color="#cfcbc9"/><stop offset=".11" stop-color="#a8a8a7"/><stop offset=".21" stop-color="#697071"/><stop offset=".26" stop-color="#465053"/><stop offset=".37" stop-color="#878d8e"/><stop offset=".46" stop-color="#b7b9ba"/><stop offset=".53" stop-color="#d4d5d5"/><stop offset=".57" stop-color="#e0e0e0"/><stop offset=".63" stop-color="#d6d7d7"/><stop offset=".73" stop-color="#bcbfc1"/><stop offset=".86" stop-color="#91989d"/><stop offset=".88" stop-color="#8b9298"/><stop offset="1" stop-color="#d1d3d4"/><stop offset="1" stop-color="#a7a9ac"/></linearGradient><radialGradient id="radial-gradient-11" cx="243.87" cy="71.38" fx="243.87" fy="71.38" r="92.24" xlink:href="#radial-gradient-2"/><radialGradient id="radial-gradient-12" cx="243.87" cy="71.38" fx="243.87" fy="71.38" r="92.24" gradientUnits="userSpaceOnUse"><stop offset="0" stop-color="aqua"/><stop offset=".31" stop-color="#0071bc"/><stop offset=".77" stop-color="blue"/><stop offset=".98" stop-color="#0000a7"/></radialGradient><radialGradient id="Steel_Radial-4" cx="241.97" cy="73.74" fx="241.97" fy="73.74" r="93.6" xlink:href="#Steel_Radial"/><radialGradient id="Steel_Radial-5" cx="371.97" cy="76.79" fx="371.97" fy="76.79" r="3.85" xlink:href="#Steel_Radial"/><filter id="SBdrop-shadow-3" filterUnits="userSpaceOnUse"><feOffset dx="0" dy="9"/><feGaussianBlur result="blur-3" stdDeviation="3"/><feFlood flood-color="#000" flood-opacity=".75"/><feComposite in2="blur-3" operator="in"/><feComposite in="SourceGraphic"/></filter><linearGradient id="Steel-2" x1="656.08" y1="72.62" x2="918.59" y2="72.62" xlink:href="#Steel"/><radialGradient id="radial-gradient-13" cx="786.82" cy="71.38" fx="786.82" fy="71.38" r="92.24" xlink:href="#radial-gradient-2"/><radialGradient id="radial-gradient-14" cx="786.82" cy="71.38" fx="786.82" fy="71.38" r="92.24" gradientUnits="userSpaceOnUse"><stop offset="0" stop-color="#f69e23"/><stop offset=".31" stop-color="#f15a24"/><stop offset=".77" stop-color="#c1272d"/><stop offset=".98" stop-color="#9e005d"/></radialGradient><radialGradient id="Steel_Radial-6" cx="788.71" cy="73.74" fx="788.71" fy="73.74" r="93.6" xlink:href="#Steel_Radial"/><radialGradient id="Steel_Radial-7" cx="658.72" cy="76.79" fx="658.72" fy="76.79" r="3.85" xlink:href="#Steel_Radial"/><filter id="SBdrop-shadow-4" filterUnits="userSpaceOnUse"><feOffset dx="0" dy="9"/><feGaussianBlur result="blur-4" stdDeviation="10"/><feFlood flood-color="#000" flood-opacity=".75"/><feComposite in2="blur-4" operator="in"/><feComposite in="SourceGraphic"/></filter><radialGradient id="Steel_Radial-8" cx="62.88" cy="75.73" fx="62.88" fy="75.73" r="52.51" xlink:href="#Steel_Radial"/><linearGradient id="Steel-3" x1="1.5" y1="73.74" x2="123.85" y2="73.74" xlink:href="#Steel"/><radialGradient id="Steel_Radial-9" cx="59.3" cy="73.74" fx="59.3" fy="73.74" r="45.6" xlink:href="#Steel_Radial"/><radialGradient id="radial-gradient-15" cx="58.3" cy="74.74" fx="58.3" fy="74.74" r="44.13" xlink:href="#radial-gradient-2"/><linearGradient id="linear-gradient-6" x1="5.9" y1="74.74" x2="110.7" y2="74.74" gradientUnits="userSpaceOnUse"><stop offset="0" stop-color="aqua"/><stop offset=".36" stop-color="#0071bc"/><stop offset=".77" stop-color="blue"/><stop offset=".98" stop-color="#0000a7"/></linearGradient><filter id="SBdrop-shadow-5" filterUnits="userSpaceOnUse"><feOffset dx="0" dy="9"/><feGaussianBlur result="blur-5" stdDeviation="10"/><feFlood flood-color="#000" flood-opacity=".75"/><feComposite in2="blur-5" operator="in"/><feComposite in="SourceGraphic"/></filter><radialGradient id="Steel_Radial-10" cx="967.8" cy="75.73" fx="967.8" fy="75.73" r="52.51" xlink:href="#Steel_Radial"/><linearGradient id="Steel-4" x1="906.84" y1="73.74" x2="1029.19" y2="73.74" xlink:href="#Steel"/><radialGradient id="radial-gradient-16" cx="972.38" cy="74.74" fx="972.38" fy="74.74" r="44.13" xlink:href="#radial-gradient-2"/><linearGradient id="linear-gradient-7" x1="1024.78" y1="74.74" x2="919.98" y2="74.74" xlink:href="#linear-gradient"/><radialGradient id="radial-gradient-17" cx="486.91" cy="59.38" fx="486.91" fy="-79.95" r="159.82" gradientTransform="translate(-81.35) scale(1.23 1)" gradientUnits="userSpaceOnUse"><stop offset=".02" stop-color="#fff"/><stop offset=".17" stop-color="#c7c7c7" stop-opacity=".78"/><stop offset=".52" stop-color="#3d3d3d" stop-opacity=".24"/><stop offset=".67" stop-color="#000" stop-opacity="0"/></radialGradient></defs><g class="cls-51"><g id="Layer_2"><g id="ScoreBoard"><g class="cls-53"><path class="cls-5" d="M649.19.11v138.29h275.33c2.34,0,4.34-1.69,4.74-4L951.99.11h-302.8Z"/><path class="cls-22" d="M383.19.11H79.79l22.74,134.29c.39,2.31,2.39,4,4.74,4h275.93V.11Z"/><path class="cls-8" d="M951.99,0l-22.74,134.29c-.39,2.31-2.39,4-4.74,4H107.26c-2.34,0-4.34-1.69-4.74-4L79.79,0h-10.09l24.29,143.45c.37,2.19,2.27,3.8,4.5,3.8h834.78c2.22,0,4.12-1.61,4.5-3.8L962.05,0h-10.06Z"/><path class="cls-14" d="M82.39.11l22.25,131.41c.42,2.46,2.52,4.24,5.01,4.24h264.59c1.51,0,2.79,1.08,3.04,2.57l5.69,33.58c.42,2.45,2.52,4.24,5.01,4.24h255.55c2.49,0,4.6-1.78,5.01-4.24l5.68-33.58c.25-1.49,1.53-2.57,3.04-2.57h264.68c2.49,0,4.6-1.78,5.01-4.24L949.22.11H82.39Z"/><path class="cls-47" d="M937.77.11H93.47l20.27,119.7c.52,3.06,3.17,5.3,6.27,5.3h259.17c1.35,0,2.5.97,2.72,2.3l6.82,40.29c.22,1.33,1.38,2.3,2.72,2.3h248.62c1.35,0,2.5-.97,2.72-2.3l6.82-40.29c.22-1.33,1.38-2.3,2.72-2.3h258.8c3.16,0,5.85-2.28,6.38-5.39L937.77.11Z"/><path class="cls-32" d="M375.72,114.13l-1.12-5.8c-.33-2.2-1.98-3.8-3.94-3.8H123.74c-1.16,0-2.25.57-3.01,1.57-.79,1.04-1.13,2.41-.92,3.82l1.12,5.8c.33,2.2,1.98,3.8,3.94,3.8h246.92c1.16,0,2.25-.57,3.01-1.57.79-1.04,1.13-2.41.92-3.82Z"/><path class="cls-31" d="M375.72,115.17l-1.12-5.19c-.33-1.97-1.98-3.4-3.93-3.4H124.4c-1.15,0-2.25.51-3.01,1.4-.79.93-1.12,2.16-.91,3.42l1.12,5.19c.33,1.97,1.98,3.4,3.93,3.4h246.27c1.15,0,2.25-.51,3.01-1.4.79-.93,1.12-2.16.91-3.42Z"/><path class="cls-19" d="M316.89,116.44h40.25c.3,0,.53-.23.48-.47l-1.07-5.18c-.04-.19-.24-.34-.48-.34h-40.25c-.3,0-.53.23-.48.47l1.07,5.18c.04.19.24.34.48.34Z"/><path class="cls-19" d="M267.06,116.44h40.25c.3,0,.53-.23.48-.47l-1.07-5.18c-.04-.19-.24-.34-.48-.34h-40.25c-.3,0-.53.23-.48.47l1.07,5.18c.04.19.24.34.48.34Z"/><path class="cls-19" d="M217.24,116.44h40.25c.3,0,.53-.23.48-.47l-1.07-5.18c-.04-.19-.24-.34-.48-.34h-40.25c-.3,0-.53.23-.48.47l1.07,5.18c.04.19.24.34.48.34Z"/><path class="cls-19" d="M167.42,116.44h40.25c.3,0,.53-.23.48-.47l-1.07-5.18c-.04-.19-.24-.34-.48-.34h-40.25c-.3,0-.53.23-.48.47l1.07,5.18c.04.19.24.34.48.34Z"/><path class="cls-45" d="M316.89,116.44h40.25c.3,0,.53-.23.48-.47l-1.07-5.18c-.04-.19-.24-.34-.48-.34h-40.25c-.3,0-.53.23-.48.47l1.07,5.18c.04.19.24.34.48.34Z"/><path class="cls-45" d="M267.06,116.44h40.25c.3,0,.53-.23.48-.47l-1.07-5.18c-.04-.19-.24-.34-.48-.34h-40.25c-.3,0-.53.23-.48.47l1.07,5.18c.04.19.24.34.48.34Z"/><path class="cls-45" d="M217.24,116.44h40.25c.3,0,.53-.23.48-.47l-1.07-5.18c-.04-.19-.24-.34-.48-.34h-40.25c-.3,0-.53.23-.48.47l1.07,5.18c.04.19.24.34.48.34Z"/><path class="cls-45" d="M167.42,116.44h40.25c.3,0,.53-.23.48-.47l-1.07-5.18c-.04-.19-.24-.34-.48-.34h-40.25c-.3,0-.53.23-.48.47l1.07,5.18c.04.19.24.34.48.34Z"/><path class="cls-24" d="M362.89,97.4h76.23c1.99,0,3.5-1.79,3.17-3.76l-7.05-41.13c-.26-1.54-1.6-2.67-3.17-2.67h-76.23c-1.99,0-3.5,1.79-3.17,3.76l7.05,41.13c.26,1.54,1.6,2.67,3.17,2.67Z"/><g class="cls-57"><path class="cls-44" d="M362.89,95.9c-.84,0-1.55-.6-1.69-1.42l-7.05-41.13c-.09-.51.05-1,.38-1.39.33-.39.8-.61,1.31-.61h76.23c.84,0,1.55.6,1.69,1.42l7.05,41.13c.09.51-.05,1-.38,1.39-.33.39-.8.61-1.31.61h-76.23Z"/><path class="cls-13" d="M432.07,52.85c.1,0,.19.07.21.18l7.05,41.13s.02.1-.05.17c-.06.08-.14.08-.16.08h-76.23c-.1,0-.19-.07-.21-.18l-7.05-41.13s-.02-.1.05-.17c.06-.08.14-.08.16-.08h76.23M432.07,49.85h-76.23c-1.99,0-3.5,1.79-3.17,3.76l7.05,41.13c.26,1.54,1.6,2.67,3.17,2.67h76.23c1.99,0,3.5-1.79,3.17-3.76l-7.05-41.13c-.26-1.54-1.6-2.67-3.17-2.67h0Z"/></g><path class="cls-39" d="M443.28,92.65l-7.05-41.13c-.26-1.54-1.6-2.67-3.17-2.67h-76.23c-1.43,0-2.61.94-3.03,2.19.33-.11.67-.19,1.03-.19h76.23c1.56,0,2.9,1.13,3.17,2.67l7.05,41.13c.09.55.03,1.08-.13,1.57,1.44-.49,2.41-1.96,2.13-3.57Z"/><path class="cls-40" d="M543.2,106.72h-148.51c-2.53,0-4.45,2.37-4.02,4.97l2.96,17.96c.34,2.04,2.03,3.53,4.02,3.53h236.23c1.99,0,3.68-1.49,4.02-3.53l2.96-17.96c.43-2.6-1.49-4.97-4.02-4.97h-93.63Z"/><path class="cls-27" d="M542.34,137.41h-142.27c-2.42,0-4.26,2.33-3.85,4.89l2.83,17.69c.32,2.01,1.95,3.48,3.85,3.48h226.3c1.9,0,3.53-1.47,3.85-3.48l2.83-17.69c.41-2.56-1.43-4.89-3.85-4.89h-89.7Z"/><path class="cls-49" d="M397.03,107.22c-2.48,0-4.36,2.23-3.94,4.68l2.9,16.91c.33,1.92,1.99,3.32,3.94,3.32h231.65c1.95,0,3.61-1.4,3.94-3.32l2.9-16.91c.42-2.44-1.46-4.68-3.94-4.68h-237.45Z"/><path class="cls-29" d="M402.31,138.55c-2.38,0-4.18,2.14-3.78,4.48l2.78,16.2c.32,1.84,1.91,3.18,3.78,3.18h221.92c1.87,0,3.46-1.34,3.78-3.18l2.78-16.2c.4-2.34-1.4-4.48-3.78-4.48h-227.47Z"/><path class="cls-30" d="M109.28.11l5.68,33.55c.81,4.81,4.98,8.33,9.86,8.33h312.86c1.51,0,2.8,1.09,3.05,2.58l9.89,55.75c.25,1.49,1.54,2.58,3.05,2.58h124.09c1.51,0,2.8-1.09,3.05-2.58l9.98-55.75c.25-1.49,1.54-2.58,3.05-2.58h312.15c4.88,0,9.05-3.52,9.86-8.33L921.53.11H109.28Z"/><path class="cls-41" d="M126.89,37.6c-3.66,0-6.77-2.62-7.39-6.23L114.14.11h803.81l-5.36,31.25c-.62,3.61-3.73,6.23-7.39,6.23H126.89Z"/><path class="cls-26" d="M444.09,45.89l8.68,53.11c.22,1.34,1.34,2.32,2.65,2.32h120.57c1.31,0,2.44-.98,2.65-2.32l8.68-53.11c.28-1.7-.99-3.26-2.65-3.26h-137.92c-1.67,0-2.93,1.55-2.65,3.26Z"/><path class="cls-48" d="M948.2.11l-22.22,131.24c-.33,1.97-2.03,3.4-4.03,3.4h-264.68c-1.99,0-3.7,1.44-4.03,3.4l-5.69,33.58c-.33,1.97-2.03,3.4-4.03,3.4h-255.55c-1.99,0-3.69-1.44-4.03-3.4l-5.68-33.58c-.33-1.96-2.03-3.4-4.03-3.4H109.65c-1.99,0-3.7-1.44-4.03-3.4L83.4.11h-2.03l.06.33,22.22,131.24c.5,2.94,3.02,5.07,6,5.07h264.59c1.02,0,1.89.73,2.06,1.74l5.68,33.58c.5,2.94,3.02,5.07,6,5.07h255.55c2.98,0,5.5-2.13,6-5.07l5.68-33.58c.17-1.01,1.04-1.74,2.06-1.74h264.68c2.98,0,5.5-2.13,6-5.07L950.18.44l.06-.33h-2.03Z"/><path class="cls-1" d="M654.97,114.13l1.12-5.8c.33-2.2,1.98-3.8,3.94-3.8h246.92c1.16,0,2.25.57,3.01,1.57.79,1.04,1.13,2.41.92,3.82l-1.12,5.8c-.33,2.2-1.98,3.8-3.94,3.8h-246.92c-1.16,0-2.25-.57-3.01-1.57-.79-1.04-1.13-2.41-.92-3.82Z"/><path class="cls-25" d="M654.97,115.17l1.12-5.19c.33-1.97,1.98-3.4,3.93-3.4h246.27c1.15,0,2.25.51,3.01,1.4.79.93,1.12,2.16.91,3.42l-1.12,5.19c-.33,1.97-1.98,3.4-3.93,3.4h-246.27c-1.15,0-2.25-.51-3.01-1.4-.79-.93-1.12-2.16-.91-3.42Z"/><path class="cls-19" d="M713.8,116.44h-40.25c-.3,0-.53-.23-.48-.47l1.07-5.18c.04-.19.24-.34.48-.34h40.25c.3,0,.53.23.48.47l-1.07,5.18c-.04.19-.24.34-.48.34Z"/><path class="cls-19" d="M763.62,116.44h-40.25c-.3,0-.53-.23-.48-.47l1.07-5.18c.04-.19.24-.34.48-.34h40.25c.3,0,.53.23.48.47l-1.07,5.18c-.04.19-.24.34-.48.34Z"/><path class="cls-19" d="M813.45,116.44h-40.25c-.3,0-.53-.23-.48-.47l1.07-5.18c.04-.19.24-.34.48-.34h40.25c.3,0,.53.23.48.47l-1.07,5.18c-.04.19-.24.34-.48.34Z"/><path class="cls-19" d="M863.27,116.44h-40.25c-.3,0-.53-.23-.48-.47l1.07-5.18c.04-.19.24-.34.48-.34h40.25c.3,0,.53.23.48.47l-1.07,5.18c-.04.19-.24.34-.48.34Z"/><path class="cls-6" d="M713.8,116.44h-40.25c-.3,0-.53-.23-.48-.47l1.07-5.18c.04-.19.24-.34.48-.34h40.25c.3,0,.53.23.48.47l-1.07,5.18c-.04.19-.24.34-.48.34Z"/><path class="cls-6" d="M763.62,116.44h-40.25c-.3,0-.53-.23-.48-.47l1.07-5.18c.04-.19.24-.34.48-.34h40.25c.3,0,.53.23.48.47l-1.07,5.18c-.04.19-.24.34-.48.34Z"/><path class="cls-6" d="M813.45,116.44h-40.25c-.3,0-.53-.23-.48-.47l1.07-5.18c.04-.19.24-.34.48-.34h40.25c.3,0,.53.23.48.47l-1.07,5.18c-.04.19-.24.34-.48.34Z"/><path class="cls-6" d="M863.27,116.44h-40.25c-.3,0-.53-.23-.48-.47l1.07-5.18c.04-.19.24-.34.48-.34h40.25c.3,0,.53.23.48.47l-1.07,5.18c-.04.19-.24.34-.48.34Z"/><path class="cls-9" d="M667.79,97.4h-76.23c-1.99,0-3.5-1.79-3.17-3.76l7.05-41.13c.26-1.54,1.6-2.67,3.17-2.67h76.23c1.99,0,3.5,1.79,3.17,3.76l-7.05,41.13c-.26,1.54-1.6,2.67-3.17,2.67Z"/><g class="cls-57"><path class="cls-43" d="M591.57,95.9c-.51,0-.98-.22-1.31-.61-.33-.39-.46-.89-.38-1.39l7.05-41.13c.14-.82.85-1.42,1.69-1.42h76.23c.51,0,.98.22,1.31.61s.47.89.38,1.39l-7.05,41.13c-.14.82-.85,1.42-1.69,1.42h-76.23Z"/><path class="cls-33" d="M674.85,52.85s.1,0,.16.08c.06.08.05.15.05.17l-7.05,41.13c-.02.1-.11.18-.21.18h-76.23s-.1,0-.16-.08c-.06-.08-.05-.15-.05-.17l7.05-41.13c.02-.1.11-.18.21-.18h76.23M674.85,49.85h-76.23c-1.56,0-2.9,1.13-3.17,2.67l-7.05,41.13c-.34,1.96,1.18,3.76,3.17,3.76h76.23c1.56,0,2.9-1.13,3.17-2.67l7.05-41.13c.34-1.96-1.18-3.76-3.17-3.76h0Z"/></g><path class="cls-12" d="M587.4,92.65l7.05-41.13c.26-1.54,1.6-2.67,3.17-2.67h76.23c1.43,0,2.61.94,3.03,2.19-.33-.11-.67-.19-1.03-.19h-76.23c-1.56,0-2.9,1.13-3.17,2.67l-7.05,41.13c-.09.55-.03,1.08.13,1.57-1.44-.49-2.41-1.96-2.13-3.57Z"/><path class="cls-37" d="M445.63,47.97l8.5,50.18c.21,1.27,1.31,2.2,2.6,2.2h118.06c1.29,0,2.38-.93,2.6-2.2l8.5-50.18c.27-1.61-.97-3.08-2.6-3.08h-135.06c-1.63,0-2.87,1.47-2.6,3.08Z"/><path class="cls-56" d="M916.92,1.11l-5.11,29.81c-.58,3.36-3.49,5.82-6.9,5.82H126.6c-3.41,0-6.32-2.46-6.9-5.81l-5.11-29.81h-1.01l5.14,29.98c.66,3.85,3.97,6.64,7.88,6.64h778.31c3.91,0,7.22-2.8,7.89-6.65l5.14-29.98h-1.01Z"/></g><g class="cls-55"><path class="cls-21" d="M369.33,80.09l5.27-8.06-8.03-8.03-2.49-14.51c-.29-1.69-1.76-2.93-3.47-2.93H115.62c-2.18,0-3.84,1.97-3.47,4.12l7.73,45.09c.29,1.69,1.76,2.93,3.47,2.93h245c2.18,0,3.84-1.97,3.47-4.12l-2.48-14.49Z"/><path class="cls-46" d="M367.34,79.54l4.9-7.52-7.04-6.92-2.6-14.98c-.19-1.13-1.17-1.95-2.32-1.95H117.15c-1.02,0-1.8.92-1.63,1.93l7.22,43.12c.14.79.82,1.37,1.63,1.37h242.1c3.88,0,3.24-1.97,2.87-4.12l-2-10.94Z"/><path class="cls-18" d="M367.34,79.54l4.9-7.52-7.04-6.92-2.6-14.98c-.19-1.13-1.17-1.95-2.32-1.95H117.15c-1.02,0-1.8.92-1.63,1.93l7.22,43.12c.14.79.82,1.37,1.63,1.37h242.1c3.88,0,3.24-1.97,2.87-4.12l-2-10.94Z"/><path class="cls-38" d="M369.41,96.71H124.41c-1.72,0-3.18-1.24-3.47-2.93l-7.73-45.09c-.03-.18-.03-.35-.03-.52-.8.78-1.23,1.9-1.03,3.11l7.73,45.09c.29,1.69,1.76,2.93,3.47,2.93h245c2,0,3.55-1.66,3.5-3.6-.63.61-1.48,1.01-2.44,1.01Z"/><polyline class="cls-36" points="374.61 73.68 374.61 72.02 369.33 80.09 369.59 81.56"/></g><g class="cls-52"><path class="cls-34" d="M661.35,80.09l-5.27-8.06,8.03-8.03,2.49-14.51c.29-1.69,1.76-2.93,3.47-2.93h245c2.18,0,3.84,1.97,3.47,4.12l-7.73,45.09c-.29,1.69-1.76,2.93-3.47,2.93h-245c-2.18,0-3.84-1.97-3.47-4.12l2.48-14.49Z"/><path class="cls-15" d="M663.35,79.54l-4.9-7.52,7.04-6.92,2.6-14.98c.19-1.13,1.17-1.95,2.32-1.95h243.13c1.02,0,1.8.92,1.63,1.93l-7.22,43.12c-.14.79-.82,1.37-1.63,1.37h-242.1c-3.88,0-3.24-1.97-2.87-4.12l2-10.94Z"/><path class="cls-3" d="M663.35,79.54l-4.9-7.52,7.04-6.92,2.6-14.98c.19-1.13,1.17-1.95,2.32-1.95h243.13c1.02,0,1.8.92,1.63,1.93l-7.22,43.12c-.14.79-.82,1.37-1.63,1.37h-242.1c-3.88,0-3.24-1.97-2.87-4.12l2-10.94Z"/><path class="cls-7" d="M661.28,96.71h245c1.72,0,3.18-1.24,3.47-2.93l7.73-45.09c.03-.18.03-.35.03-.52.8.78,1.23,1.9,1.03,3.11l-7.73,45.09c-.29,1.69-1.76,2.93-3.47,2.93h-245c-2,0-3.55-1.66-3.5-3.6.63.61,1.48,1.01,2.44,1.01Z"/><polyline class="cls-28" points="656.08 73.68 656.08 72.02 661.35 80.09 661.1 81.56"/></g><g class="cls-50"><path class="cls-17" d="M114.77,93.25l11-16.83-16.76-16.76-3.07-17.91c-.55-3.19-3.3-5.51-6.54-5.51H6.64c-1.96,0-3.81.86-5.07,2.36-1.26,1.5-1.8,3.47-1.47,5.4l11.27,65.73c.55,3.19,3.3,5.51,6.54,5.51h92.76c1.96,0,3.81-.86,5.07-2.36s1.8-3.47,1.47-5.4l-2.44-14.23Z"/><path class="cls-2" d="M113.17,90.8h.1l10.58-16.18-16.18-16.18h-.04l-3.16-18.43c-.42-2.46-2.56-4.27-5.06-4.27H6.64c-3.18,0-5.6,2.87-5.06,6l11.27,65.73c.42,2.47,2.56,4.27,5.06,4.27h92.76c3.18,0,5.6-2.87,5.06-6l-2.56-14.93Z"/><path class="cls-10" d="M108.7,109.13H20.5c-2.2,0-4.06-1.57-4.44-3.74L5.47,43.6c-.22-1.31.14-2.64.99-3.66.86-1.02,2.11-1.6,3.44-1.6h88.2c2.2,0,4.06,1.57,4.44,3.74l10.6,61.8c.22,1.31-.14,2.65-.99,3.66-.86,1.02-2.11,1.6-3.44,1.6ZM9.9,41.34c-.45,0-.86.19-1.15.53-.29.34-.41.78-.33,1.22l10.6,61.8c.12.72.75,1.25,1.48,1.25h88.2c.45,0,.86-.19,1.15-.53.29-.34.41-.78.33-1.22l-10.6-61.8c-.12-.72-.75-1.25-1.48-1.25H9.9Z"/><path class="cls-42" d="M19.5,108.63h88.2c1.86,0,3.27-1.67,2.96-3.51l-10.6-61.8c-.25-1.44-1.5-2.49-2.96-2.49H8.9c-1.86,0-3.27,1.67-2.96,3.51l10.6,61.8c.25,1.44,1.5,2.49,2.96,2.49Z"/><path class="cls-11" d="M19.5,108.63h88.2c1.86,0,3.27-1.67,2.96-3.51l-10.6-61.8c-.25-1.44-1.5-2.49-2.96-2.49H8.9c-1.86,0-3.27,1.67-2.96,3.51l10.6,61.8c.25,1.44,1.5,2.49,2.96,2.49Z"/></g><g class="cls-54"><path class="cls-23" d="M915.92,93.25l-11-16.83,16.76-16.76,3.07-17.91c.55-3.19,3.3-5.51,6.54-5.51h92.76c1.96,0,3.81.86,5.07,2.36,1.26,1.5,1.8,3.47,1.47,5.4l-11.27,65.73c-.55,3.19-3.3,5.51-6.54,5.51h-92.76c-1.96,0-3.81-.86-5.07-2.36-1.26-1.5-1.8-3.47-1.47-5.4l2.44-14.23Z"/><path class="cls-16" d="M917.52,90.8h-.1s-10.58-16.18-10.58-16.18l16.18-16.18h.04s3.16-18.43,3.16-18.43c.42-2.46,2.56-4.27,5.06-4.27h92.76c3.18,0,5.6,2.87,5.06,6l-11.27,65.73c-.42,2.47-2.56,4.27-5.06,4.27h-92.76c-3.18,0-5.6-2.87-5.06-6l2.56-14.93Z"/><path class="cls-19" d="M918.54,107.53c-.86-1.02-1.22-2.35-.99-3.66l10.6-61.8c.37-2.17,2.24-3.74,4.44-3.74h88.2c1.33,0,2.58.58,3.44,1.6.86,1.02,1.22,2.35.99,3.66l-10.6,61.8c-.37,2.17-2.24,3.74-4.44,3.74h-88.2c-1.33,0-2.58-.58-3.44-1.6ZM932.58,41.34c-.73,0-1.35.52-1.48,1.25l-10.6,61.8c-.08.44.04.88.33,1.22.29.34.7.53,1.15.53h88.2c.73,0,1.35-.52,1.48-1.25l10.6-61.8c.08-.44-.04-.88-.33-1.22-.29-.34-.7-.53-1.15-.53h-88.2Z"/><path class="cls-4" d="M1011.19,108.63h-88.2c-1.86,0-3.27-1.67-2.96-3.51l10.6-61.8c.25-1.44,1.5-2.49,2.96-2.49h88.2c1.86,0,3.27,1.67,2.96,3.51l-10.6,61.8c-.25,1.44-1.5,2.49-2.96,2.49Z"/><path class="cls-20" d="M1011.19,108.63h-88.2c-1.86,0-3.27-1.67-2.96-3.51l10.6-61.8c.25-1.44,1.5-2.49,2.96-2.49h88.2c1.86,0,3.27,1.67,2.96,3.51l-10.6,61.8c-.25,1.44-1.5,2.49-2.96,2.49Z"/></g><path class="cls-35" d="M323.49.11c0,.39-.02.78-.02,1.17,0,64.82,86.09,117.38,192.29,117.38S708.05,66.1,708.05,1.28c0-.39-.02-.78-.02-1.17h-384.53Z"/></g></g></g></svg>