<?xml version="1.0" encoding="UTF-8"?><svg id="Layer_2" xmlns="http://www.w3.org/2000/svg" xmlns:xlink="http://www.w3.org/1999/xlink" viewBox="0 0 304 255.87"><defs><style>.cls-1{fill:#4d4d4d;}.cls-1,.cls-2,.cls-3,.cls-4,.cls-5,.cls-6,.cls-7,.cls-8,.cls-9,.cls-10,.cls-11,.cls-12,.cls-13,.cls-14,.cls-15,.cls-16,.cls-17,.cls-18,.cls-19,.cls-20,.cls-21,.cls-22{stroke-width:0px;}.cls-2{fill:#666;}.cls-3{fill:url(#linear-gradient);}.cls-4{fill:url(#Steel-2);filter:url(#drop-shadow-3);}.cls-5{fill:url(#Cast_Iron);}.cls-23{fill:#df0025;filter:url(#drop-shadow-1);stroke:#fff;stroke-miterlimit:10;stroke-width:.5px;}.cls-6{fill:#ccc;}.cls-7{filter:url(#drop-shadow-2);}.cls-8,.cls-13,.cls-16,.cls-17,.cls-18{fill:#fff;}.cls-9{fill:url(#Steel);}.cls-10{fill:url(#linear-gradient-2);}.cls-11{fill:url(#radial-gradient-2);}.cls-12{fill:url(#linear-gradient-3);}.cls-13{filter:url(#drop-shadow-4);}.cls-14{fill:url(#radial-gradient-5);}.cls-15{fill:url(#radial-gradient);}.cls-16{filter:url(#drop-shadow-5);}.cls-17{filter:url(#drop-shadow-7);}.cls-18{filter:url(#drop-shadow-6);}.cls-19{fill:url(#radial-gradient-6);}.cls-20{fill:url(#radial-gradient-3);}.cls-21{fill:url(#Pewter);}.cls-22{fill:url(#radial-gradient-4);}</style><filter id="drop-shadow-1" filterUnits="userSpaceOnUse"><feOffset dx="0" dy="2"/><feGaussianBlur result="blur" stdDeviation="2"/><feFlood flood-color="#000" flood-opacity=".75"/><feComposite in2="blur" operator="in"/><feComposite in="SourceGraphic"/></filter><filter id="drop-shadow-2" filterUnits="userSpaceOnUse"><feOffset dx="0" dy="9"/><feGaussianBlur result="blur-2" stdDeviation="3"/><feFlood flood-color="#000" flood-opacity=".75"/><feComposite in2="blur-2" operator="in"/><feComposite in="SourceGraphic"/></filter><linearGradient id="Steel" x1="10.87" y1="115.87" x2="293.09" y2="115.87" gradientUnits="userSpaceOnUse"><stop offset="0" stop-color="#e5e2df"/><stop offset="0" stop-color="#ded9d6"/><stop offset=".04" stop-color="#cfcbc9"/><stop offset=".11" stop-color="#a8a8a7"/><stop offset=".21" stop-color="#697071"/><stop offset=".26" stop-color="#465053"/><stop offset=".37" stop-color="#878d8e"/><stop offset=".46" stop-color="#b7b9ba"/><stop offset=".53" stop-color="#d4d5d5"/><stop offset=".57" stop-color="#e0e0e0"/><stop offset=".63" stop-color="#d6d7d7"/><stop offset=".73" stop-color="#bcbfc1"/><stop offset=".86" stop-color="#91989d"/><stop offset=".88" stop-color="#8b9298"/><stop offset="1" stop-color="#d1d3d4"/><stop offset="1" stop-color="#a7a9ac"/></linearGradient><linearGradient id="Cast_Iron" x1="69.44" y1="116.08" x2="279.32" y2="116.08" gradientUnits="userSpaceOnUse"><stop offset="0" stop-color="#85878d"/><stop offset=".53" stop-color="#979899"/><stop offset="1" stop-color="#5d5c62"/></linearGradient><linearGradient id="Steel-2" x1="96.1" y1="116.08" x2="252.66" y2="116.08" xlink:href="#Steel"/><filter id="drop-shadow-3" filterUnits="userSpaceOnUse"><feOffset dx="0" dy="2"/><feGaussianBlur result="blur-3" stdDeviation="2"/><feFlood flood-color="#000" flood-opacity=".75"/><feComposite in2="blur-3" operator="in"/><feComposite in="SourceGraphic"/></filter><linearGradient id="Pewter" x1="95.1" y1="116.08" x2="253.66" y2="116.08" gradientUnits="userSpaceOnUse"><stop offset=".03" stop-color="#9b9b98"/><stop offset=".13" stop-color="#a4a5a6"/><stop offset=".22" stop-color="#aeb0b7"/><stop offset=".35" stop-color="#9fa3a9"/><stop offset=".61" stop-color="#788187"/><stop offset=".72" stop-color="#657076"/><stop offset="1" stop-color="#8b949a"/></linearGradient><radialGradient id="radial-gradient" cx="174.38" cy="106.86" fx="174.38" fy="106.86" r="56.95" gradientUnits="userSpaceOnUse"><stop offset="0" stop-color="#fff"/><stop offset="0" stop-color="#363636"/><stop offset=".76" stop-color="#070707"/><stop offset="1" stop-color="#000"/></radialGradient><linearGradient id="linear-gradient" x1="174.38" y1="159.52" x2="174.38" y2="54.2" gradientUnits="userSpaceOnUse"><stop offset="0" stop-color="#0a0a0a"/><stop offset=".24" stop-color="#333"/><stop offset=".41" stop-color="#404040"/><stop offset=".54" stop-color="#4d4d4d"/><stop offset=".72" stop-color="#333"/><stop offset=".79" stop-color="#2e2e2e"/><stop offset=".87" stop-color="#212121"/><stop offset=".9" stop-color="#1a1a1a"/></linearGradient><linearGradient id="linear-gradient-2" x1="129.14" y1="158.13" x2="219.64" y2="158.13" gradientUnits="userSpaceOnUse"><stop offset="0" stop-color="#0a0a0a"/><stop offset=".41" stop-color="#333"/><stop offset=".59" stop-color="#252525"/><stop offset=".91" stop-color="#030303"/><stop offset=".94" stop-color="#000"/><stop offset=".96" stop-color="#040404"/><stop offset=".99" stop-color="#111"/><stop offset="1" stop-color="#1a1a1a"/></linearGradient><linearGradient id="linear-gradient-3" x1="128.71" y1="158.13" x2="220.07" y2="158.13" xlink:href="#linear-gradient"/><filter id="drop-shadow-4" filterUnits="userSpaceOnUse"><feOffset dx="0" dy="2"/><feGaussianBlur result="blur-4" stdDeviation="2"/><feFlood flood-color="#000" flood-opacity=".75"/><feComposite in2="blur-4" operator="in"/><feComposite in="SourceGraphic"/></filter><filter id="drop-shadow-5" filterUnits="userSpaceOnUse"><feOffset dx="0" dy="2"/><feGaussianBlur result="blur-5" stdDeviation="2"/><feFlood flood-color="#000" flood-opacity=".75"/><feComposite in2="blur-5" operator="in"/><feComposite in="SourceGraphic"/></filter><filter id="drop-shadow-6" filterUnits="userSpaceOnUse"><feOffset dx="0" dy="2"/><feGaussianBlur result="blur-6" stdDeviation="2"/><feFlood flood-color="#000" flood-opacity=".75"/><feComposite in2="blur-6" operator="in"/><feComposite in="SourceGraphic"/></filter><filter id="drop-shadow-7" filterUnits="userSpaceOnUse"><feOffset dx="0" dy="2"/><feGaussianBlur result="blur-7" stdDeviation="2"/><feFlood flood-color="#000" flood-opacity=".75"/><feComposite in2="blur-7" operator="in"/><feComposite in="SourceGraphic"/></filter><radialGradient id="radial-gradient-2" cx="23.85" cy="116.75" fx="2.76" fy="101.11" r="26.26" gradientUnits="userSpaceOnUse"><stop offset="0" stop-color="#4e575a"/><stop offset=".25" stop-color="#545d60"/><stop offset="1" stop-color="#fff"/></radialGradient><radialGradient id="radial-gradient-3" cx="41.15" cy="107.77" fx="41.15" fy="107.77" r="37.27" xlink:href="#radial-gradient-2"/><radialGradient id="radial-gradient-4" cx="41.15" cy="107.77" fx="41.15" fy="107.77" r="37.27" xlink:href="#radial-gradient-2"/><radialGradient id="radial-gradient-5" cx="41.15" cy="107.77" fx="41.15" fy="107.77" r="37.27" xlink:href="#radial-gradient-2"/><radialGradient id="radial-gradient-6" cx="41.15" cy="107.77" fx="41.15" fy="107.77" r="37.27" xlink:href="#radial-gradient-2"/></defs><g id="Boost"><path class="cls-23" d="M174.4,9.13c-59.08,0-106.97,47.89-106.97,106.97s47.89,106.97,106.97,106.97,106.97-47.89,106.97-106.97S233.48,9.13,174.4,9.13ZM174.4,215.82c-55.07,0-99.72-44.64-99.72-99.72S119.33,16.38,174.4,16.38s99.72,44.64,99.72,99.72-44.64,99.72-99.72,99.72Z"/><path class="cls-7" d="M267.96,202.07c-4.1,15.54-20.51,20.45-20.51,20.45,0,0-95.7-1.82-115.33-3-19.64-1.18-34.36-19.82-34.36-19.82l-60.25-110.73-26.64,26.64-.21.22-1.44,4.64,57.32,87.66c12.09,18.5,32.51,29.54,54.61,29.54h140.22c7.96,0,14.73-5.7,16.09-13.54l15.75-91c2.09-12.1,2.14-24.29.28-36.12-9.58,39.88-22.94,95.31-25.52,105.07Z"/><path class="cls-1" d="M268.57,43.03C247.51,18.01,216.67,3.66,183.96,3.66h-9.56c-31.37,0-60.86,12.22-83.05,34.4L10.39,115.83l-1.44,4.64,57.32,87.66c12.09,18.5,32.51,29.54,54.61,29.54h140.22c7.96,0,14.73-5.7,16.09-13.54l15.75-91c5.58-32.23-3.3-65.06-24.37-90.08ZM174.38,219.52c-57.13,0-103.44-46.31-103.44-103.44S117.25,12.63,174.38,12.63s103.44,46.31,103.44,103.44-46.31,103.44-103.44,103.44Z"/><path class="cls-9" d="M183.96.38h-9.56c-30.75,0-60.24,12.22-81.99,33.96L10.87,115.87l56.65,86.64c11.77,18.01,31.84,28.86,53.35,28.86h140.23c7.21,0,13.38-5.19,14.61-12.3l15.75-91C303,61.38,251.65.38,183.96.38ZM174.38,219.52c-57.13,0-103.44-46.31-103.44-103.44S117.25,12.63,174.38,12.63s103.44,46.31,103.44,103.44-46.31,103.44-103.44,103.44Z"/><path class="cls-8" d="M261.1,231.75H120.88c-21.72,0-41.78-10.85-53.67-29.03L10.39,115.83l.21-.22L92.15,34.07C114.12,12.1,143.33,0,174.4,0h9.56c32.37,0,62.9,14.21,83.75,38.97,20.85,24.77,29.64,57.27,24.12,89.17l-15.75,91c-1.26,7.31-7.56,12.61-14.98,12.61ZM11.35,115.92l56.48,86.38c11.75,17.96,31.57,28.69,53.04,28.69h140.22c7.05,0,13.04-5.04,14.24-11.99l15.75-91c5.48-31.68-3.25-63.96-23.95-88.56C246.43,14.86,216.11.75,183.96.75h-9.56c-30.87,0-59.89,12.02-81.72,33.85L11.35,115.92Z"/><path class="cls-5" d="M174.38,221.02c-57.87,0-104.94-47.08-104.94-104.94S116.51,11.13,174.38,11.13s104.94,47.08,104.94,104.94-47.08,104.94-104.94,104.94ZM174.38,14.13c-56.21,0-101.94,45.73-101.94,101.94s45.73,101.94,101.94,101.94,101.94-45.73,101.94-101.94S230.59,14.13,174.38,14.13Z"/><circle class="cls-4" cx="174.38" cy="116.08" r="78.28"/><path class="cls-21" d="M174.38,195.36c-43.71,0-79.28-35.56-79.28-79.28s35.56-79.28,79.28-79.28,79.28,35.56,79.28,79.28-35.56,79.28-79.28,79.28ZM174.38,38.8c-42.61,0-77.28,34.67-77.28,77.28s34.67,77.28,77.28,77.28,77.28-34.67,77.28-77.28-34.67-77.28-77.28-77.28Z"/><path class="cls-15" d="M130.55,159.02c-11.31-11.54-17.54-26.79-17.54-42.95,0-33.84,27.53-61.37,61.37-61.37s61.37,27.53,61.37,61.37c0,16.16-6.23,31.4-17.54,42.95h-87.66Z"/><path class="cls-3" d="M174.38,55.2c33.57,0,60.87,27.31,60.87,60.87,0,15.96-6.12,31.02-17.25,42.45h-87.24c-11.13-11.43-17.25-26.49-17.25-42.45,0-33.57,27.31-60.87,60.87-60.87M174.38,54.2c-34.17,0-61.87,27.7-61.87,61.87,0,16.93,6.81,32.27,17.83,43.45h88.08c11.02-11.17,17.83-26.51,17.83-43.45,0-34.17-27.7-61.87-61.87-61.87h0Z"/><path class="cls-10" d="M212.69,172.63h-80.55c-1.86,0-3.27-1.67-2.96-3.51l3.94-23.01c.25-1.44,1.5-2.49,2.96-2.49h80.55c1.86,0,3.27,1.67,2.96,3.51l-3.94,23.01c-.25,1.44-1.5,2.49-2.96,2.49Z"/><path class="cls-12" d="M212.69,173.06h-80.55c-1.01,0-1.97-.44-2.62-1.22s-.93-1.79-.76-2.79l3.95-23.01c.28-1.65,1.7-2.85,3.38-2.85h80.55c1.01,0,1.97.44,2.62,1.22s.93,1.79.76,2.79l-3.94,23.01c-.28,1.65-1.71,2.85-3.38,2.85ZM136.09,144.05c-1.26,0-2.32.9-2.53,2.14l-3.95,23.01c-.13.75.08,1.51.57,2.09.49.58,1.21.91,1.97.91h80.55c1.26,0,2.32-.9,2.53-2.14l3.94-23.01c.13-.75-.08-1.51-.57-2.09s-1.21-.91-1.97-.91h-80.55Z"/><circle class="cls-13" cx="84.94" cy="116.1" r="2.66"/><circle class="cls-16" cx="174.38" cy="26.81" r="2.66"/><circle class="cls-18" cx="263.71" cy="116.1" r="2.66"/><rect class="cls-17" x="168.39" y="201.13" width="8.56" height="8.56" transform="translate(-94.67 182.26) rotate(-45)"/><path class="cls-6" d="M27.14,117.21h0c-.17-.25-.41-.47-.71-.64-.11-.06-.22-.11-.35-.16.03-.02.06-.04.09-.06.23-.18.41-.39.54-.61.13-.22.22-.47.27-.74.04-.25.07-.49.07-.72,0-.87-.29-1.52-.86-1.93-.55-.39-1.33-.59-2.34-.59h-3.69v10h3.71c1.18,0,2.09-.25,2.72-.74.64-.51.97-1.24.97-2.17,0-.26-.03-.54-.08-.82-.06-.3-.17-.57-.33-.82ZM25.38,115.56c-.36.24-.94.37-1.73.37h-2.3v-2.98h2.43c.76,0,1.3.12,1.63.36.31.23.46.59.46,1.09,0,.56-.16.94-.49,1.16ZM25.79,117.55c.18.13.31.29.38.5.08.22.12.49.12.8,0,.74-.25,1.72-2.44,1.72h-2.5v-3.44h2.31c.53,0,.98.04,1.33.11.34.07.6.18.79.31Z"/><path class="cls-6" d="M36.82,113h0c-.42-.45-.93-.8-1.51-1.05-1.16-.49-2.65-.48-3.79,0-.58.25-1.08.6-1.5,1.04-.42.45-.75,1-.99,1.62-.23.63-.35,1.34-.35,2.11s.12,1.47.34,2.11c.23.64.56,1.19.98,1.65.42.46.92.82,1.5,1.07.58.25,1.22.38,1.91.38s1.33-.13,1.91-.38c.58-.25,1.08-.61,1.5-1.08.42-.46.74-1.01.98-1.65.23-.63.34-1.34.34-2.1s-.12-1.47-.35-2.1c-.23-.63-.56-1.18-.98-1.63ZM36.92,116.72c0,.65-.09,1.23-.26,1.73-.17.5-.42.92-.73,1.25-.31.34-.68.59-1.1.77-.86.35-1.96.35-2.82,0-.42-.17-.79-.43-1.1-.77-.31-.33-.55-.76-.72-1.25-.17-.5-.26-1.08-.26-1.73s.09-1.22.27-1.71c.18-.49.42-.9.73-1.23.31-.33.68-.58,1.1-.75.43-.17.91-.26,1.42-.26s.97.09,1.4.26c.42.17.78.42,1.09.74.31.33.55.75.73,1.23.18.49.27,1.07.27,1.72Z"/><path class="cls-6" d="M47.32,113h0c-.42-.45-.93-.8-1.5-1.05-1.16-.49-2.64-.48-3.79,0-.58.25-1.08.6-1.5,1.04-.42.45-.75,1-.98,1.62-.23.63-.35,1.33-.35,2.11s.12,1.47.34,2.11c.23.64.56,1.19.98,1.65.42.46.93.82,1.5,1.07.58.25,1.22.38,1.91.38s1.33-.13,1.91-.38c.58-.25,1.08-.62,1.5-1.08.42-.46.75-1.01.98-1.65.23-.63.34-1.34.34-2.1s-.12-1.47-.35-2.1-.56-1.18-.98-1.63ZM47.42,116.72c0,.65-.09,1.23-.26,1.73h0c-.17.5-.42.92-.73,1.25-.31.34-.68.6-1.1.77-.86.35-1.96.35-2.82,0-.42-.17-.79-.43-1.1-.77-.31-.33-.55-.76-.72-1.25-.18-.5-.26-1.08-.26-1.73s.09-1.22.27-1.71c.18-.49.42-.9.73-1.23.31-.33.68-.58,1.1-.75.43-.17.91-.26,1.42-.26s.97.09,1.4.26c.42.17.78.42,1.09.74.31.33.55.75.73,1.23.18.49.27,1.07.27,1.72Z"/><path class="cls-6" d="M56.87,117.15h0c-.2-.2-.45-.37-.73-.51-.26-.13-.53-.24-.84-.34-.29-.09-.58-.17-.88-.23-.3-.07-.58-.13-.86-.18-.46-.09-.85-.2-1.16-.31-.29-.11-.53-.23-.7-.36-.16-.12-.27-.25-.33-.4-.07-.16-.1-.34-.1-.55,0-.46.18-.82.55-1.08.39-.28.99-.42,1.79-.42.38,0,.72.04,1.01.12.29.08.54.2.74.34.2.14.37.31.49.5s.22.41.28.63l.05.19h1.15l-.04-.28c-.06-.42-.19-.8-.4-1.14-.21-.33-.48-.62-.81-.85-.32-.23-.71-.41-1.14-.53-.85-.24-1.97-.24-2.81.02-.43.13-.8.32-1.11.55-.32.25-.56.54-.73.88-.17.34-.26.72-.26,1.13,0,.38.06.71.2,1,.13.29.34.55.61.78.26.22.59.41.99.56.38.15.84.29,1.38.41.6.12,1.12.25,1.56.38.4.12.73.26.97.41.22.14.38.3.46.47.09.18.14.41.14.69,0,.26-.05.49-.16.69-.11.21-.27.39-.48.53-.22.15-.48.27-.79.35-.62.17-1.48.16-2.17.03-.33-.06-.62-.17-.88-.32-.25-.15-.46-.35-.63-.6-.17-.25-.29-.58-.35-.97l-.03-.21h-1.17l.02.27c.03.48.14.91.33,1.3.19.39.47.73.82,1,.35.27.79.48,1.29.62.5.14,1.09.21,1.75.21.51,0,1-.07,1.44-.22.45-.15.84-.35,1.17-.62.33-.27.59-.59.78-.96.19-.37.28-.79.28-1.23,0-.38-.06-.73-.19-1.02-.12-.28-.29-.53-.5-.74Z"/><polygon class="cls-6" points="58.38 111.75 58.38 112.95 61.67 112.95 61.67 121.76 62.86 121.76 62.86 112.95 66.19 112.95 66.19 111.75 58.38 111.75"/><path class="cls-2" d="M26.66,116.9c-.15-.22-.36-.41-.62-.56s-.63-.25-1.07-.29c.32-.07.58-.18.78-.34s.36-.34.48-.54.2-.42.24-.66c.04-.23.06-.46.06-.68,0-.79-.25-1.37-.76-1.73s-1.24-.54-2.19-.54h-3.44v9.5h3.45c1.13,0,1.98-.23,2.56-.69.58-.46.87-1.12.87-1.98,0-.25-.02-.51-.07-.77s-.15-.51-.29-.73ZM20.84,112.25h2.68c.82,0,1.41.13,1.78.41s.56.71.56,1.29c0,.64-.2,1.1-.6,1.37-.4.27-1.02.41-1.87.41h-2.55v-3.48ZM23.59,120.37h-2.75v-3.94h2.56c.56,0,1.02.04,1.38.12s.66.2.89.36c.22.16.38.36.47.61.09.25.14.54.14.89,0,1.31-.9,1.97-2.69,1.97Z"/><path class="cls-2" d="M36.37,112.72c-.4-.43-.87-.76-1.42-.99-.55-.23-1.15-.35-1.8-.35s-1.25.12-1.8.35-1.02.56-1.42.98c-.4.43-.71.94-.93,1.54s-.33,1.28-.33,2.02.11,1.41.33,2.02.53,1.13.92,1.56c.4.43.87.77,1.42,1.01.55.24,1.15.36,1.81.36s1.26-.12,1.81-.36c.55-.24,1.02-.58,1.41-1.02.4-.44.7-.96.92-1.57s.33-1.28.33-2.01-.11-1.41-.33-2.01c-.22-.6-.53-1.12-.93-1.55ZM36.62,118.09c-.18.53-.45.98-.78,1.34-.34.37-.73.64-1.19.83-.46.19-.96.28-1.51.28s-1.05-.09-1.51-.28c-.46-.19-.86-.46-1.19-.83-.33-.36-.59-.81-.78-1.34-.19-.53-.28-1.13-.28-1.81s.09-1.28.28-1.8c.19-.52.45-.96.79-1.31.34-.36.73-.63,1.19-.81s.96-.28,1.52-.28,1.03.09,1.49.27c.45.18.85.45,1.18.81.33.36.59.8.78,1.32.19.52.28,1.12.28,1.8s-.09,1.28-.28,1.81Z"/><path class="cls-2" d="M46.87,112.72c-.4-.43-.87-.76-1.42-.99-.55-.23-1.15-.35-1.8-.35s-1.25.12-1.8.35-1.02.56-1.42.98c-.4.43-.71.94-.93,1.54s-.33,1.28-.33,2.02.11,1.41.33,2.02.53,1.13.92,1.56c.4.43.87.77,1.42,1.01.55.24,1.15.36,1.81.36s1.26-.12,1.81-.36c.55-.24,1.02-.58,1.41-1.02.4-.44.7-.96.92-1.57s.33-1.28.33-2.01-.11-1.41-.33-2.01c-.22-.6-.53-1.12-.93-1.55ZM47.12,118.09c-.18.53-.45.98-.78,1.34-.34.37-.73.64-1.19.83-.46.19-.96.28-1.51.28s-1.05-.09-1.51-.28c-.46-.19-.86-.46-1.19-.83-.33-.36-.59-.81-.78-1.34-.19-.53-.28-1.13-.28-1.81s.09-1.28.28-1.8c.19-.52.45-.96.79-1.31.34-.36.73-.63,1.19-.81s.96-.28,1.52-.28,1.03.09,1.49.27c.45.18.85.45,1.18.81.33.36.59.8.78,1.32.19.52.28,1.12.28,1.8s-.09,1.28-.28,1.81Z"/><path class="cls-2" d="M56.42,116.88c-.19-.18-.41-.34-.66-.47s-.52-.23-.8-.32c-.28-.09-.57-.16-.86-.22-.29-.06-.58-.13-.86-.18-.47-.1-.87-.2-1.19-.32-.32-.11-.57-.24-.77-.39-.19-.15-.33-.31-.41-.5-.08-.18-.12-.4-.12-.65,0-.54.22-.97.66-1.29.44-.31,1.08-.47,1.93-.47.4,0,.76.04,1.08.13s.59.21.82.37c.23.16.41.35.56.57.14.22.25.46.31.71h.67c-.05-.39-.17-.73-.36-1.04-.19-.31-.43-.57-.74-.78s-.66-.38-1.06-.49c-.4-.11-.85-.17-1.34-.17s-.93.06-1.33.18-.75.29-1.03.51c-.29.22-.51.48-.66.79-.16.31-.23.64-.23,1.01,0,.34.06.64.17.9s.3.49.54.69c.24.2.55.38.92.52.37.15.82.28,1.34.4.63.13,1.16.26,1.58.39.43.13.77.27,1.03.43.26.16.45.35.56.57.11.22.16.49.16.8,0,.3-.06.57-.19.81-.13.24-.31.45-.55.62-.24.17-.53.3-.87.39-.34.09-.72.14-1.14.14s-.79-.04-1.15-.1c-.36-.07-.68-.19-.96-.36-.28-.17-.52-.39-.71-.68-.19-.28-.32-.64-.39-1.07h-.69c.03.45.13.85.3,1.2s.42.66.75.91.73.45,1.21.58c.48.14,1.04.2,1.68.2.49,0,.95-.07,1.37-.2s.78-.33,1.08-.57c.3-.25.54-.54.71-.88.17-.34.26-.71.26-1.12,0-.35-.06-.66-.17-.92s-.26-.48-.45-.66Z"/><polygon class="cls-2" points="58.36 111.56 58.36 112.25 61.65 112.25 61.65 121.06 62.35 121.06 62.35 112.25 65.67 112.25 65.67 111.56 58.36 111.56"/><path class="cls-11" d="M26.93,117.35c-.15-.22-.36-.41-.62-.56s-.63-.25-1.07-.29c.32-.07.58-.18.78-.34s.36-.34.48-.54.2-.42.24-.66c.04-.23.06-.46.06-.68,0-.79-.25-1.37-.76-1.73s-1.24-.54-2.19-.54h-3.44v9.5h3.45c1.13,0,1.98-.23,2.56-.69.58-.46.87-1.12.87-1.98,0-.25-.02-.51-.07-.77s-.15-.51-.29-.73ZM21.1,112.7h2.68c.82,0,1.41.13,1.78.41s.56.71.56,1.29c0,.64-.2,1.1-.6,1.37-.4.27-1.02.41-1.87.41h-2.55v-3.48ZM23.85,120.81h-2.75v-3.94h2.56c.56,0,1.02.04,1.38.12s.66.2.89.36c.22.16.38.36.47.61.09.25.14.54.14.89,0,1.31-.9,1.97-2.69,1.97Z"/><path class="cls-20" d="M36.63,113.16c-.4-.43-.87-.76-1.42-.99-.55-.23-1.15-.35-1.8-.35s-1.25.12-1.8.35-1.02.56-1.42.98c-.4.43-.71.94-.93,1.54s-.33,1.28-.33,2.02.11,1.41.33,2.02.53,1.13.92,1.56c.4.43.87.77,1.42,1.01.55.24,1.15.36,1.81.36s1.26-.12,1.81-.36c.55-.24,1.02-.58,1.41-1.02.4-.44.7-.96.92-1.57s.33-1.28.33-2.01-.11-1.41-.33-2.01c-.22-.6-.53-1.12-.93-1.55ZM36.89,118.53c-.18.53-.45.98-.78,1.34-.34.37-.73.64-1.19.83-.46.19-.96.28-1.51.28s-1.05-.09-1.51-.28c-.46-.19-.86-.46-1.19-.83-.33-.36-.59-.81-.78-1.34-.19-.53-.28-1.13-.28-1.81s.09-1.28.28-1.8c.19-.52.45-.96.79-1.31.34-.36.73-.63,1.19-.81s.96-.28,1.52-.28,1.03.09,1.49.27c.45.18.85.45,1.18.81.33.36.59.8.78,1.32.19.52.28,1.12.28,1.8s-.09,1.28-.28,1.81Z"/><path class="cls-22" d="M47.14,113.16c-.4-.43-.87-.76-1.42-.99-.55-.23-1.15-.35-1.8-.35s-1.25.12-1.8.35-1.02.56-1.42.98c-.4.43-.71.94-.93,1.54s-.33,1.28-.33,2.02.11,1.41.33,2.02.53,1.13.92,1.56c.4.43.87.77,1.42,1.01.55.24,1.15.36,1.81.36s1.26-.12,1.81-.36c.55-.24,1.02-.58,1.41-1.02.4-.44.7-.96.92-1.57s.33-1.28.33-2.01-.11-1.41-.33-2.01c-.22-.6-.53-1.12-.93-1.55ZM47.39,118.53c-.18.53-.45.98-.78,1.34-.34.37-.73.64-1.19.83-.46.19-.96.28-1.51.28s-1.05-.09-1.51-.28c-.46-.19-.86-.46-1.19-.83-.33-.36-.59-.81-.78-1.34-.19-.53-.28-1.13-.28-1.81s.09-1.28.28-1.8c.19-.52.45-.96.79-1.31.34-.36.73-.63,1.19-.81s.96-.28,1.52-.28,1.03.09,1.49.27c.45.18.85.45,1.18.81.33.36.59.8.78,1.32.19.52.28,1.12.28,1.8s-.09,1.28-.28,1.81Z"/><path class="cls-14" d="M56.69,117.33c-.19-.18-.41-.34-.66-.47s-.52-.23-.8-.32c-.28-.09-.57-.16-.86-.22-.29-.06-.58-.13-.86-.18-.47-.1-.87-.2-1.19-.32-.32-.11-.57-.24-.77-.39-.19-.15-.33-.31-.41-.5-.08-.18-.12-.4-.12-.65,0-.54.22-.97.66-1.29.44-.31,1.08-.47,1.93-.47.4,0,.76.04,1.08.13s.59.21.82.37c.23.16.41.35.56.57.14.22.25.46.31.71h.67c-.05-.39-.17-.73-.36-1.04-.19-.31-.43-.57-.74-.78s-.66-.38-1.06-.49c-.4-.11-.85-.17-1.34-.17s-.93.06-1.33.18-.75.29-1.03.51c-.29.22-.51.48-.66.79-.16.31-.23.64-.23,1.01,0,.34.06.64.17.9s.3.49.54.69c.24.2.55.38.92.52.37.15.82.28,1.34.4.63.13,1.16.26,1.58.39.43.13.77.27,1.03.43.26.16.45.35.56.57.11.22.16.49.16.8,0,.3-.06.57-.19.81-.13.24-.31.45-.55.62-.24.17-.53.3-.87.39-.34.09-.72.14-1.14.14s-.79-.04-1.15-.1c-.36-.07-.68-.19-.96-.36-.28-.17-.52-.39-.71-.68-.19-.28-.32-.64-.39-1.07h-.69c.03.45.13.85.3,1.2s.42.66.75.91.73.45,1.21.58c.48.14,1.04.2,1.68.2.49,0,.95-.07,1.37-.2s.78-.33,1.08-.57c.3-.25.54-.54.71-.88.17-.34.26-.71.26-1.12,0-.35-.06-.66-.17-.92s-.26-.48-.45-.66Z"/><polygon class="cls-19" points="58.63 112 58.63 112.7 61.92 112.7 61.92 121.51 62.61 121.51 62.61 112.7 65.94 112.7 65.94 112 58.63 112"/></g></svg>