<?xml version="1.0" encoding="UTF-8"?><svg id="Layer_2" xmlns="http://www.w3.org/2000/svg" xmlns:xlink="http://www.w3.org/1999/xlink" viewBox="0 0 1076.35 67.63"><defs><style>.cls-1{fill:#666;}.cls-1,.cls-2,.cls-3,.cls-4,.cls-5,.cls-6,.cls-7,.cls-8{stroke-width:0px;}.cls-9{fill:url(#linear-gradient);stroke:#fff;stroke-miterlimit:10;}.cls-2{fill:url(#Steel);}.cls-3{fill:url(#linear-gradient-2);}.cls-4{fill:url(#radial-gradient-2);}.cls-5{fill:url(#Steel_Radial-3);}.cls-6{fill:url(#radial-gradient);}.cls-7{fill:url(#Steel_Radial-2);}.cls-8{fill:url(#Steel_Radial);}</style><linearGradient id="linear-gradient" x1=".5" y1="38.9" x2="1063.6" y2="38.9" gradientUnits="userSpaceOnUse"><stop offset="0" stop-color="aqua"/><stop offset=".3" stop-color="blue"/><stop offset=".5" stop-color="#1b1464"/><stop offset=".7" stop-color="#f15a24"/><stop offset="1" stop-color="#fbb03b"/></linearGradient><radialGradient id="Steel_Radial" cx="538.43" cy="33.56" fx="538.43" fy="33.56" r="381.11" gradientUnits="userSpaceOnUse"><stop offset="0" stop-color="#e5e2df"/><stop offset="0" stop-color="#f1efed"/><stop offset="0" stop-color="#fff"/><stop offset=".13" stop-color="#f0f0f0"/><stop offset=".37" stop-color="#c9cacb"/><stop offset=".52" stop-color="#adaeb0"/><stop offset=".6" stop-color="#a3a5a7"/><stop offset=".74" stop-color="#898d8f"/><stop offset=".91" stop-color="#5e6669"/><stop offset="1" stop-color="#465053"/></radialGradient><radialGradient id="Steel_Radial-2" cx="529.44" cy="41.54" fx="529.44" fy="41.54" r="374.45" xlink:href="#Steel_Radial"/><radialGradient id="radial-gradient" cx="644.12" cy="43.07" fx="644.12" fy="43.07" r="281.16" gradientUnits="userSpaceOnUse"><stop offset="0" stop-color="#fff"/><stop offset="0" stop-color="#363636"/><stop offset=".76" stop-color="#070707"/><stop offset="1" stop-color="#000"/></radialGradient><linearGradient id="linear-gradient-2" x1="245.81" y1="43.07" x2="1042.43" y2="43.07" gradientUnits="userSpaceOnUse"><stop offset="0" stop-color="#0a0a0a"/><stop offset=".24" stop-color="#333"/><stop offset=".41" stop-color="#404040"/><stop offset=".54" stop-color="#4d4d4d"/><stop offset=".72" stop-color="#333"/><stop offset=".79" stop-color="#2e2e2e"/><stop offset=".87" stop-color="#212121"/><stop offset=".9" stop-color="#1a1a1a"/></linearGradient><linearGradient id="Steel" x1=".5" y1="42.28" x2="270.02" y2="42.28" gradientUnits="userSpaceOnUse"><stop offset="0" stop-color="#e5e2df"/><stop offset="0" stop-color="#ded9d6"/><stop offset=".04" stop-color="#cfcbc9"/><stop offset=".11" stop-color="#a8a8a7"/><stop offset=".21" stop-color="#697071"/><stop offset=".26" stop-color="#465053"/><stop offset=".37" stop-color="#878d8e"/><stop offset=".46" stop-color="#b7b9ba"/><stop offset=".53" stop-color="#d4d5d5"/><stop offset=".57" stop-color="#e0e0e0"/><stop offset=".63" stop-color="#d6d7d7"/><stop offset=".73" stop-color="#bcbfc1"/><stop offset=".86" stop-color="#91989d"/><stop offset=".88" stop-color="#8b9298"/><stop offset="1" stop-color="#d1d3d4"/><stop offset="1" stop-color="#a7a9ac"/></linearGradient><radialGradient id="Steel_Radial-3" cx="135.26" cy="38.78" fx="135.26" fy="38.78" r="97.38" xlink:href="#Steel_Radial"/><radialGradient id="radial-gradient-2" cx="129.01" cy="43.77" fx="129.01" fy="43.77" r="92.34" xlink:href="#radial-gradient"/></defs><g id="PlayerStats"><path class="cls-9" d="M.5,67.13h1063.1l-8.97-52.3c-.41-2.4-2.49-4.16-4.93-4.16H.5v56.45Z"/><path class="cls-8" d="M1053.64,16.83l8.62,50.3h14.09l-10.51-61.31c-.58-3.36-3.49-5.82-6.9-5.82H.5v12.68h1048.21c2.44,0,4.52,1.75,4.93,4.16Z"/><path class="cls-1" d="M1054.64,14.83c-.41-2.4-2.49-4.16-4.93-4.16H.5v2h1048.21c2.44,0,4.52,1.75,4.93,4.16l8.62,50.3h1.34l-8.97-52.3Z"/><path class="cls-7" d="M.5,67.13h1057.88l-8.34-48.67c-.25-1.44-1.5-2.5-2.97-2.5H.5v51.17Z"/><path class="cls-6" d="M254.75,58.57c-1.95,0-3.61-1.4-3.94-3.32l-3.94-23.01c-.2-1.17.12-2.35.89-3.25.76-.9,1.88-1.42,3.06-1.42h782.68c1.95,0,3.61,1.4,3.94,3.32l3.95,23.01c.2,1.17-.12,2.35-.88,3.25s-1.88,1.42-3.06,1.42H254.75Z"/><path class="cls-3" d="M1033.48,28.56c1.46,0,2.71,1.05,2.96,2.49l3.94,23.01c.31,1.83-1.1,3.51-2.96,3.51H254.75c-1.46,0-2.71-1.05-2.96-2.49l-3.94-23.01c-.31-1.83,1.1-3.51,2.96-3.51h782.68M1033.48,26.56H250.81c-1.48,0-2.87.65-3.82,1.78-.95,1.13-1.36,2.61-1.11,4.07l3.94,23.01c.41,2.41,2.49,4.15,4.93,4.15h782.68c1.48,0,2.87-.65,3.82-1.78.95-1.13,1.36-2.61,1.11-4.07l-3.94-23.01c-.41-2.41-2.48-4.15-4.93-4.15h0Z"/><polygon class="cls-2" points="270.02 49.66 270.02 42.66 237.79 17.43 .5 17.43 .5 67.13 258.6 67.13 270.02 49.66"/><polygon class="cls-5" points="254.03 67.13 270.02 42.66 237.79 10.43 .5 10.43 .5 67.13 254.03 67.13"/><polygon class="cls-1" points="257.51 44.42 258.66 42.66 234.33 18.33 .5 18.33 .5 20.55 233.64 20.55 257.51 44.42"/><polygon class="cls-4" points="242.75 67 257.51 44.42 233.64 20.55 .5 20.55 .5 67 242.75 67"/></g></svg>