<?xml version="1.0" encoding="UTF-8"?><svg xmlns="http://www.w3.org/2000/svg" xmlns:xlink="http://www.w3.org/1999/xlink" viewBox="0 0 333 183.65"><defs><style>.cls-1{fill:url(#linear-gradient);}.cls-1,.cls-2,.cls-3,.cls-4,.cls-5,.cls-6,.cls-7,.cls-8,.cls-9,.cls-10,.cls-11,.cls-12,.cls-13{stroke-width:0px;}.cls-2{fill:url(#Pewter_Radial);}.cls-14{isolation:isolate;}.cls-3{fill:url(#radial-gradient-6);}.cls-3,.cls-5,.cls-11{mix-blend-mode:difference;opacity:.25;}.cls-4{fill:url(#Pewter_Radial-2);}.cls-15{filter:url(#drop-shadow-1);}.cls-5{fill:url(#radial-gradient-4);}.cls-6{fill:url(#radial-gradient-2);}.cls-7{fill:url(#radial-gradient);}.cls-8{fill:url(#Pewter_Radial-3);}.cls-9{fill:url(#Pewter_Radial-4);}.cls-10{fill:url(#Steel_Radial-2);}.cls-11{fill:url(#radial-gradient-5);}.cls-12{fill:url(#radial-gradient-3);}.cls-13{fill:url(#Steel_Radial);}</style><filter id="drop-shadow-1" filterUnits="userSpaceOnUse"><feOffset dx="0" dy="9"/><feGaussianBlur result="blur" stdDeviation="3"/><feFlood flood-color="#000" flood-opacity=".75"/><feComposite in2="blur" operator="in"/><feComposite in="SourceGraphic"/></filter><linearGradient id="linear-gradient" x1="286.23" y1="226.67" x2="29.86" y2="-29.7" gradientUnits="userSpaceOnUse"><stop offset="0" stop-color="aqua"/><stop offset=".31" stop-color="#0071bc"/><stop offset=".77" stop-color="blue"/><stop offset=".98" stop-color="#0000a7"/></linearGradient><radialGradient id="Steel_Radial" cx="166.5" cy="91.91" fx="166.5" fy="91.91" r="134.42" gradientUnits="userSpaceOnUse"><stop offset="0" stop-color="#e5e2df"/><stop offset="0" stop-color="#f1efed"/><stop offset="0" stop-color="#fff"/><stop offset=".13" stop-color="#f0f0f0"/><stop offset=".37" stop-color="#c9cacb"/><stop offset=".52" stop-color="#adaeb0"/><stop offset=".6" stop-color="#a3a5a7"/><stop offset=".74" stop-color="#898d8f"/><stop offset=".91" stop-color="#5e6669"/><stop offset="1" stop-color="#465053"/></radialGradient><radialGradient id="Pewter_Radial" cx="160.77" cy="87.08" fx="160.77" fy="87.08" r="129.29" gradientUnits="userSpaceOnUse"><stop offset="0" stop-color="#aeb0b7"/><stop offset=".32" stop-color="#a9a9a8"/><stop offset=".35" stop-color="#a9a9a6"/><stop offset=".5" stop-color="#9a9d9e"/><stop offset=".67" stop-color="#838c92"/><stop offset="1" stop-color="#657076"/></radialGradient><radialGradient id="Steel_Radial-2" cx="157.96" cy="84.54" fx="157.96" fy="84.54" r="126.63" xlink:href="#Steel_Radial"/><radialGradient id="Pewter_Radial-2" cx="145.39" cy="34.98" fx="145.39" fy="34.98" r="99.23" xlink:href="#Pewter_Radial"/><radialGradient id="Pewter_Radial-3" cx="149.86" cy="84.54" fx="149.86" fy="84.54" r="102.36" xlink:href="#Pewter_Radial"/><radialGradient id="Pewter_Radial-4" cx="154.05" cy="134.1" fx="154.05" fy="134.1" r="105.29" xlink:href="#Pewter_Radial"/><radialGradient id="radial-gradient" cx="145.39" cy="37.53" fx="145.39" fy="37.53" r="98.03" gradientUnits="userSpaceOnUse"><stop offset="0" stop-color="#fff"/><stop offset="0" stop-color="#363636"/><stop offset=".76" stop-color="#070707"/><stop offset="1" stop-color="#000"/></radialGradient><radialGradient id="radial-gradient-2" cx="149.86" cy="87.08" fx="149.86" fy="87.08" r="101.16" xlink:href="#radial-gradient"/><radialGradient id="radial-gradient-3" cx="154.05" cy="136.64" fx="154.05" fy="136.64" r="104.1" xlink:href="#radial-gradient"/><radialGradient id="radial-gradient-4" cx="145.39" cy="37.53" fx="145.39" fy="37.53" r="98.03" gradientUnits="userSpaceOnUse"><stop offset="0" stop-color="aqua"/><stop offset=".31" stop-color="#0071bc"/><stop offset=".77" stop-color="blue"/><stop offset=".98" stop-color="#0000a7"/></radialGradient><radialGradient id="radial-gradient-5" cx="149.86" cy="87.08" fx="149.86" fy="87.08" r="101.16" xlink:href="#radial-gradient-4"/><radialGradient id="radial-gradient-6" cx="154.05" cy="136.64" fx="154.05" fy="136.64" r="104.1" xlink:href="#radial-gradient-4"/></defs><g class="cls-14"><g id="Layer_2"><g id="blueTeam"><g class="cls-15"><path class="cls-1" d="M326.69,183.65H0V.17h302.93l29.85,176.28c.64,3.77-2.26,7.2-6.08,7.2Z"/><path class="cls-13" d="M332.92,177.27L302.93.17h-11.09l28.78,168.42c.41,2.39-1.43,4.57-3.86,4.57H0v10.48h327.53c3.38,0,5.96-3.04,5.39-6.38Z"/><path class="cls-2" d="M315.93,174.16H0v-2h315.93c1.07,0,2.08-.47,2.76-1.28.69-.82.98-1.89.8-2.94L290.86.34l1.97-.34,28.64,167.6c.28,1.63-.17,3.3-1.24,4.57-1.07,1.27-2.63,2-4.29,2Z"/><path class="cls-10" d="M312.43,168.91H0V.17h287.45l28.42,164.66c.37,2.13-1.27,4.08-3.44,4.08Z"/><path class="cls-4" d="M280.05,55.75H10.74c-2.28,0-4.14-1.86-4.14-4.14V18.35c0-2.28,1.86-4.14,4.14-4.14h263.61c2.02,0,3.73,1.45,4.08,3.44l5.7,33.27c.21,1.2-.13,2.43-.92,3.37-.79.93-1.94,1.47-3.16,1.47ZM10.74,17.21c-.63,0-1.14.51-1.14,1.14v33.27c0,.63.51,1.14,1.14,1.14h269.31c.46,0,.74-.25.87-.4.13-.15.33-.47.25-.92l-5.7-33.27c-.09-.55-.56-.94-1.12-.94H10.74Z"/><path class="cls-8" d="M288.99,105.31H10.74c-2.28,0-4.14-1.86-4.14-4.14v-33.27c0-2.28,1.86-4.14,4.14-4.14h272.55c2.02,0,3.74,1.45,4.08,3.44l5.7,33.27c.21,1.2-.13,2.43-.91,3.36s-1.94,1.47-3.16,1.47ZM10.74,66.77c-.63,0-1.14.51-1.14,1.14v33.27c0,.63.51,1.14,1.14,1.14h278.25c.46,0,.74-.25.87-.4.13-.15.33-.47.25-.92l-5.7-33.27c-.09-.55-.56-.94-1.12-.94H10.74Z"/><path class="cls-9" d="M297.36,154.86H10.74c-2.28,0-4.14-1.86-4.14-4.14v-33.27c0-2.28,1.86-4.14,4.14-4.14h280.92c2.02,0,3.73,1.45,4.08,3.44l5.7,33.27c.21,1.2-.13,2.43-.92,3.37-.79.93-1.94,1.47-3.16,1.47ZM10.74,116.33c-.63,0-1.14.51-1.14,1.14v33.27c0,.63.51,1.14,1.14,1.14h286.62c.46,0,.74-.25.87-.4.13-.15.33-.47.25-.92l-5.7-33.27c-.09-.55-.56-.94-1.12-.94H10.74Z"/><path class="cls-7" d="M280.05,56.79H10.74c-1.46,0-2.64-1.18-2.64-2.64V20.89c0-1.46,1.18-2.64,2.64-2.64h263.61c1.28,0,2.38.93,2.6,2.19l5.7,33.27c.28,1.61-.96,3.08-2.6,3.08Z"/><path class="cls-6" d="M288.99,106.35H10.74c-1.46,0-2.64-1.18-2.64-2.64v-33.27c0-1.46,1.18-2.64,2.64-2.64h272.55c1.28,0,2.38.93,2.6,2.19l5.7,33.27c.28,1.61-.96,3.08-2.6,3.08Z"/><path class="cls-12" d="M297.36,155.91H10.74c-1.46,0-2.64-1.18-2.64-2.64v-33.27c0-1.46,1.18-2.64,2.64-2.64h280.92c1.28,0,2.38.93,2.6,2.19l5.7,33.27c.28,1.61-.96,3.08-2.6,3.08Z"/><path class="cls-5" d="M280.05,56.79H10.74c-1.46,0-2.64-1.18-2.64-2.64V20.89c0-1.46,1.18-2.64,2.64-2.64h263.61c1.28,0,2.38.93,2.6,2.19l5.7,33.27c.28,1.61-.96,3.08-2.6,3.08Z"/><path class="cls-11" d="M288.99,106.35H10.74c-1.46,0-2.64-1.18-2.64-2.64v-33.27c0-1.46,1.18-2.64,2.64-2.64h272.55c1.28,0,2.38.93,2.6,2.19l5.7,33.27c.28,1.61-.96,3.08-2.6,3.08Z"/><path class="cls-3" d="M297.36,155.91H10.74c-1.46,0-2.64-1.18-2.64-2.64v-33.27c0-1.46,1.18-2.64,2.64-2.64h280.92c1.28,0,2.38.93,2.6,2.19l5.7,33.27c.28,1.61-.96,3.08-2.6,3.08Z"/></g></g></g></g></svg>