<?xml version="1.0" encoding="UTF-8"?><svg xmlns="http://www.w3.org/2000/svg" xmlns:xlink="http://www.w3.org/1999/xlink" viewBox="0 0 333 183.65"><defs><style>.cls-1{fill:url(#linear-gradient);}.cls-1,.cls-2,.cls-3,.cls-4,.cls-5,.cls-6,.cls-7,.cls-8,.cls-9,.cls-10,.cls-11,.cls-12,.cls-13{stroke-width:0px;}.cls-2{fill:url(#Pewter_Radial);}.cls-14{isolation:isolate;}.cls-3{fill:url(#radial-gradient-6);}.cls-3,.cls-5,.cls-11{mix-blend-mode:difference;opacity:.25;}.cls-4{fill:url(#Pewter_Radial-2);}.cls-15{filter:url(#drop-shadow-1);}.cls-5{fill:url(#radial-gradient-4);}.cls-6{fill:url(#radial-gradient-2);}.cls-7{fill:url(#radial-gradient);}.cls-8{fill:url(#Pewter_Radial-3);}.cls-9{fill:url(#Pewter_Radial-4);}.cls-10{fill:url(#Steel_Radial-2);}.cls-11{fill:url(#radial-gradient-5);}.cls-12{fill:url(#radial-gradient-3);}.cls-13{fill:url(#Steel_Radial);}</style><filter id="drop-shadow-1" filterUnits="userSpaceOnUse"><feOffset dx="0" dy="9"/><feGaussianBlur result="blur" stdDeviation="3"/><feFlood flood-color="#000" flood-opacity=".75"/><feComposite in2="blur" operator="in"/><feComposite in="SourceGraphic"/></filter><linearGradient id="linear-gradient" x1="-164.54" y1="226.67" x2="-420.91" y2="-29.7" gradientTransform="translate(-117.77) rotate(-180) scale(1 -1)" gradientUnits="userSpaceOnUse"><stop offset="0" stop-color="#f69e23"/><stop offset=".31" stop-color="#f15a24"/><stop offset=".77" stop-color="#c1272d"/><stop offset=".98" stop-color="#9e005d"/></linearGradient><radialGradient id="Steel_Radial" cx="-284.27" cy="91.91" fx="-284.27" fy="91.91" r="134.42" gradientTransform="translate(-117.77) rotate(-180) scale(1 -1)" gradientUnits="userSpaceOnUse"><stop offset="0" stop-color="#e5e2df"/><stop offset="0" stop-color="#f1efed"/><stop offset="0" stop-color="#fff"/><stop offset=".13" stop-color="#f0f0f0"/><stop offset=".37" stop-color="#c9cacb"/><stop offset=".52" stop-color="#adaeb0"/><stop offset=".6" stop-color="#a3a5a7"/><stop offset=".74" stop-color="#898d8f"/><stop offset=".91" stop-color="#5e6669"/><stop offset="1" stop-color="#465053"/></radialGradient><radialGradient id="Pewter_Radial" cx="-289.99" cy="87.08" fx="-289.99" fy="87.08" r="129.29" gradientTransform="translate(-117.77) rotate(-180) scale(1 -1)" gradientUnits="userSpaceOnUse"><stop offset="0" stop-color="#aeb0b7"/><stop offset=".32" stop-color="#a9a9a8"/><stop offset=".35" stop-color="#a9a9a6"/><stop offset=".5" stop-color="#9a9d9e"/><stop offset=".67" stop-color="#838c92"/><stop offset="1" stop-color="#657076"/></radialGradient><radialGradient id="Steel_Radial-2" cx="-292.81" cy="84.54" fx="-292.81" fy="84.54" r="126.63" xlink:href="#Steel_Radial"/><radialGradient id="Pewter_Radial-2" cx="-305.37" cy="34.98" fx="-305.37" fy="34.98" r="99.23" xlink:href="#Pewter_Radial"/><radialGradient id="Pewter_Radial-3" cx="-300.91" cy="84.54" fx="-300.91" fy="84.54" r="102.36" xlink:href="#Pewter_Radial"/><radialGradient id="Pewter_Radial-4" cx="-296.72" cy="134.1" fx="-296.72" fy="134.1" r="105.29" xlink:href="#Pewter_Radial"/><radialGradient id="radial-gradient" cx="-305.37" cy="37.53" fx="-305.37" fy="37.53" r="98.03" gradientTransform="translate(-117.77) rotate(-180) scale(1 -1)" gradientUnits="userSpaceOnUse"><stop offset="0" stop-color="#fff"/><stop offset="0" stop-color="#363636"/><stop offset=".76" stop-color="#070707"/><stop offset="1" stop-color="#000"/></radialGradient><radialGradient id="radial-gradient-2" cx="-300.91" cy="87.08" fx="-300.91" fy="87.08" r="101.16" xlink:href="#radial-gradient"/><radialGradient id="radial-gradient-3" cx="-296.72" cy="136.64" fx="-296.72" fy="136.64" r="104.1" xlink:href="#radial-gradient"/><radialGradient id="radial-gradient-4" cx="-305.37" cy="37.53" fx="-305.37" fy="37.53" r="98.03" gradientTransform="translate(-117.77) rotate(-180) scale(1 -1)" gradientUnits="userSpaceOnUse"><stop offset="0" stop-color="#f69e23"/><stop offset=".31" stop-color="#f15a24"/><stop offset=".77" stop-color="#c1272d"/><stop offset=".98" stop-color="#9e005d"/></radialGradient><radialGradient id="radial-gradient-5" cx="-300.91" cy="87.08" fx="-300.91" fy="87.08" r="101.16" xlink:href="#radial-gradient-4"/><radialGradient id="radial-gradient-6" cx="-296.72" cy="136.64" fx="-296.72" fy="136.64" r="104.1" xlink:href="#radial-gradient-4"/></defs><g class="cls-14"><g id="Layer_2"><g id="OrangeTeam"><g class="cls-15"><path class="cls-1" d="M6.3,183.65h326.69s0-183.48,0-183.48H30.06S.22,176.44.22,176.44c-.64,3.77,2.26,7.2,6.08,7.2Z"/><path class="cls-13" d="M.08,177.27L30.06.17h11.09S12.37,168.59,12.37,168.59c-.41,2.39,1.43,4.57,3.86,4.57h316.77v10.48H5.47c-3.38,0-5.96-3.04-5.39-6.38Z"/><path class="cls-2" d="M17.06,174.16h315.93s0-2,0-2H17.06c-1.07,0-2.08-.47-2.76-1.28-.69-.82-.98-1.89-.8-2.94L42.14.34l-1.97-.34L11.53,167.6c-.28,1.63.17,3.3,1.24,4.57,1.07,1.27,2.63,2,4.29,2Z"/><path class="cls-10" d="M20.57,168.91h312.43s0-168.74,0-168.74H45.55s-28.42,164.66-28.42,164.66c-.37,2.13,1.27,4.08,3.44,4.08Z"/><path class="cls-4" d="M49.78,54.28c-.79-.93-1.12-2.16-.92-3.37l5.7-33.27c.34-1.99,2.06-3.44,4.08-3.44h263.61c2.28,0,4.14,1.86,4.14,4.14v33.27c0,2.28-1.86,4.14-4.14,4.14H52.94c-1.22,0-2.37-.54-3.16-1.47ZM58.65,17.21c-.55,0-1.03.4-1.12.94l-5.7,33.27c-.08.45.12.77.25.92.13.15.41.4.87.4h269.31c.63,0,1.14-.51,1.14-1.14V18.35c0-.63-.51-1.14-1.14-1.14H58.65Z"/><path class="cls-8" d="M40.84,103.84c-.79-.93-1.12-2.16-.91-3.36l5.7-33.27c.34-1.99,2.06-3.44,4.08-3.44h272.55c2.28,0,4.14,1.86,4.14,4.14v33.27c0,2.28-1.86,4.14-4.14,4.14H44.01c-1.22,0-2.37-.54-3.16-1.47ZM49.71,66.77c-.56,0-1.03.4-1.12.94l-5.7,33.27c-.08.45.12.77.25.92.13.15.41.4.87.4h278.25c.63,0,1.14-.51,1.14-1.14v-33.27c0-.63-.51-1.14-1.14-1.14H49.71Z"/><path class="cls-9" d="M32.47,153.39c-.79-.93-1.12-2.16-.92-3.37l5.7-33.27c.34-1.99,2.06-3.44,4.08-3.44h280.92c2.28,0,4.14,1.86,4.14,4.14v33.27c0,2.28-1.86,4.14-4.14,4.14H35.64c-1.22,0-2.37-.54-3.16-1.47ZM41.34,116.33c-.55,0-1.03.4-1.12.94l-5.7,33.27c-.08.45.12.77.25.92.13.15.41.4.87.4h286.62c.63,0,1.14-.51,1.14-1.14v-33.27c0-.63-.51-1.14-1.14-1.14H41.34Z"/><path class="cls-7" d="M52.94,56.79h269.31c1.46,0,2.64-1.18,2.64-2.64V20.89c0-1.46-1.18-2.64-2.64-2.64H58.65c-1.28,0-2.38.93-2.6,2.19l-5.7,33.27c-.28,1.61.96,3.08,2.6,3.08Z"/><path class="cls-6" d="M44.01,106.35h278.25c1.46,0,2.64-1.18,2.64-2.64v-33.27c0-1.46-1.18-2.64-2.64-2.64H49.71c-1.28,0-2.38.93-2.6,2.19l-5.7,33.27c-.28,1.61.96,3.08,2.6,3.08Z"/><path class="cls-12" d="M35.64,155.91h286.62c1.46,0,2.64-1.18,2.64-2.64v-33.27c0-1.46-1.18-2.64-2.64-2.64H41.34c-1.28,0-2.38.93-2.6,2.19l-5.7,33.27c-.28,1.61.96,3.08,2.6,3.08Z"/><path class="cls-5" d="M52.94,56.79h269.31c1.46,0,2.64-1.18,2.64-2.64V20.89c0-1.46-1.18-2.64-2.64-2.64H58.65c-1.28,0-2.38.93-2.6,2.19l-5.7,33.27c-.28,1.61.96,3.08,2.6,3.08Z"/><path class="cls-11" d="M44.01,106.35h278.25c1.46,0,2.64-1.18,2.64-2.64v-33.27c0-1.46-1.18-2.64-2.64-2.64H49.71c-1.28,0-2.38.93-2.6,2.19l-5.7,33.27c-.28,1.61.96,3.08,2.6,3.08Z"/><path class="cls-3" d="M35.64,155.91h286.62c1.46,0,2.64-1.18,2.64-2.64v-33.27c0-1.46-1.18-2.64-2.64-2.64H41.34c-1.28,0-2.38.93-2.6,2.19l-5.7,33.27c-.28,1.61.96,3.08,2.6,3.08Z"/></g></g></g></g></svg>